<svg xmlns="http://www.w3.org/2000/svg" xmlns:cc="http://web.resource.org/cc/" xmlns:svg="http://www.w3.org/2000/svg" xmlns:xlink="http://www.w3.org/1999/xlink" id="svg1" width="170.667" height="170.667"><defs id="defs3"><linearGradient id="linearGradient839"><stop id="stop840" offset="0" style="stop-color:#eae8e3;stop-opacity:1"/><stop id="stop841" offset="1" style="stop-color:#c5d2c8;stop-opacity:1"/></linearGradient><linearGradient id="linearGradient835"><stop id="stop836" offset="0" style="stop-color:#f0f0f2;stop-opacity:1"/><stop id="stop837" offset="1" style="stop-color:#d4d9e1;stop-opacity:1"/></linearGradient><linearGradient id="linearGradient831"><stop id="stop832" offset="0" style="stop-color:#bebfbe;stop-opacity:1"/><stop id="stop833" offset="1" style="stop-color:#fff;stop-opacity:1"/></linearGradient><linearGradient id="linearGradient834" x1="80.028" x2="80.028" y1="142.153" y2="6.291" gradientTransform="matrix(0.902743,0.000000,0.000000,0.974632,2.930579,4.225038)" gradientUnits="userSpaceOnUse" xlink:href="#linearGradient831"/><radialGradient id="radialGradient838" cx=".519" cy=".1" r=".11" fx=".519" fy=".1" xlink:href="#linearGradient831"/></defs><rect id="rect838" width="133.856" height="137.785" x="13.425" y="15.423" rx="8.186" ry="8.186" style="fill:#000;fill-opacity:.49668875;fill-rule:evenodd;stroke:none;stroke-width:7.5"/><rect id="rect830" width="125.12" height="135.647" x="15.416" y="11.165" rx="7.761" ry="7.761" style="fill:url(#linearGradient834);fill-rule:evenodd;stroke:#000;stroke-width:7.0702119"/><path id="path845" d="M 127.55906 80.275589 A 47.834644 47.834644 0 1 1 31.889767,80.275589 A 47.834644 47.834644 0 1 1 127.55906 80.275589 z" transform="matrix(0.788417,0.000000,0.000000,0.785328,18.05931,19.71047)" style="fill:#fff;fill-opacity:0;fill-rule:evenodd;stroke:#fff;stroke-width:17.880922;stroke-opacity:1"/><path id="path846" d="M 81.219737,38.365987 L 81.166089,83.937014" style="fill:none;fill-opacity:.75;fill-rule:evenodd;stroke:#fff;stroke-width:14.069986;stroke-linecap:round;stroke-opacity:1"/><path id="path842" d="M 127.55906 80.275589 A 47.834644 47.834644 0 1 1 31.889767,80.275589 A 47.834644 47.834644 0 1 1 127.55906 80.275589 z" transform="matrix(0.788417,0.000000,0.000000,0.785328,14.84701,16.47892)" style="fill:#fff;fill-opacity:0;fill-rule:evenodd;stroke:#000;stroke-width:20.861076;stroke-opacity:.49999997"/><path id="path839" d="M 127.55906 80.275589 A 47.834644 47.834644 0 1 1 31.889767,80.275589 A 47.834644 47.834644 0 1 1 127.55906 80.275589 z" transform="matrix(0.788417,0.000000,0.000000,0.785328,14.84701,16.47892)" style="fill:#fff;fill-opacity:0;fill-rule:evenodd;stroke:#000;stroke-width:17.880922"/><path id="path843" d="M 78.007436,35.134432 L 77.953788,80.705459" style="fill:none;fill-opacity:.75;fill-rule:evenodd;stroke:#000;stroke-width:16.414984;stroke-linecap:round;stroke-opacity:.49999997"/><path id="path840" d="M 78.007436,35.134432 L 77.953788,80.705459" style="fill:none;fill-opacity:.75;fill-rule:evenodd;stroke:#000;stroke-width:14.069986;stroke-linecap:round"/><metadata id="metadata23"/></svg>